<svg id="Layer_1" data-name="Layer 1" xmlns="http://www.w3.org/2000/svg" viewBox="0 0 340 54"><defs><style>.cls-1,.cls-5{fill:#fff;}.cls-1{stroke:#fff;}.cls-2{fill:none;}.cls-2,.cls-4,.cls-5{stroke:#000;}.cls-3{isolation:isolate;font-size:14px;font-family:Times;}</style></defs><title>nfa_abc</title><g id="graph1"><polygon class="cls-1" points="339.5 53.5 0.5 53.5 0.5 0.5 339.5 0.5 339.5 53.5"/><g id="node1"><circle class="cls-2" cx="44.5" cy="27.5" r="18"/><text class="cls-3" transform="translate(40.78 32)">0</text></g><g id="node2"><circle class="cls-2" cx="132.5" cy="27.5" r="18"/><text class="cls-3" transform="translate(128.78 32)">1</text></g><g id="edge2"><path class="cls-2" d="M62.73,27.5H104"/><polygon class="cls-4" points="104.29 24 114.29 27.5 104.29 31 104.29 24"/><text class="cls-3" transform="translate(82.17 25.82)">a</text></g><g id="node3"><circle class="cls-2" cx="220.5" cy="27.5" r="18"/><text class="cls-3" transform="translate(216.78 31.32)">2</text></g><g id="edge4"><path class="cls-2" d="M150.73,27.5H192"/><polygon class="cls-4" points="192.29 24 202.29 27.5 192.29 31 192.29 24"/><text class="cls-3" transform="translate(170.78 25.32)">b</text></g><g id="node4"><circle class="cls-2" cx="312.5" cy="27.5" r="18"/><circle class="cls-2" cx="312.5" cy="27.5" r="22"/><text class="cls-3" transform="translate(308.78 31.32)">3</text></g><g id="edge6"><path class="cls-2" d="M238.68,27.5h41.59"/><polygon class="cls-4" points="280.47 24 290.47 27.5 280.47 31 280.47 24"/><text class="cls-3" transform="translate(258.17 26.32)">c</text></g><polyline class="cls-5" points="7 17.21 25.5 26.99 8.45 36"/></g></svg>