<?xml version="1.0" encoding="utf-8"?>
<!-- Generator: Adobe Illustrator 19.2.1, SVG Export Plug-In . SVG Version: 6.00 Build 0)  -->
<svg version="1.1" id="Layer_1" xmlns="http://www.w3.org/2000/svg" xmlns:xlink="http://www.w3.org/1999/xlink" x="0px" y="0px"
	 width="259.8px" height="121.1px" viewBox="0 0 259.8 121.1" style="enable-background:new 0 0 259.8 121.1;" xml:space="preserve"
	>
<style type="text/css">
	.st0{fill:none;stroke:#000000;}
	.st1{font-family:'Times-Roman';}
	.st2{font-size:14px;}
	.st3{stroke:#000000;}
	.st4{fill:#FFFFFF;stroke:#000000;stroke-miterlimit:10;}
</style>
<title>nfa_astarc</title>
<path class="st0" d="M34.7,47c0,0-6-28.5,37-28.5h43"/>
<g id="node2">
	<circle class="st0" cx="132.7" cy="18.5" r="18"/>
	<text transform="matrix(1 0 0 1 128.7012 22.32)" class="st1 st2">2</text>
</g>
<path class="st0" d="M52.7,65h147c0,0,31.5,3.5,31.5-18c0,0,6-28.5-37-28.5h-43"/>
<path class="st0" d="M34.7,83c0,21,34,19.3,34,19.3h154"/>
<polygon class="st3" points="103.7,15 113.7,18.5 103.7,22 "/>
<polygon class="st3" points="63.7,68.5 53.7,65 63.7,61.5 "/>
<polygon class="st3" points="212.2,98.8 222.2,102.3 212.2,105.8 "/>
<g id="node5">
	<circle class="st0" cx="34.4" cy="65" r="18.3"/>
</g>
<g id="node5-2">
	<circle class="st0" cx="241" cy="102.3" r="15"/>
	<circle class="st0" cx="241" cy="102.3" r="18.3"/>
</g>
<text transform="matrix(1 0 0 1 237.6011 105.82)" class="st1 st2">3</text>
<text transform="matrix(1 0 0 1 30.6512 68.5)" class="st1 st2">1</text>
<g id="edge2">
	<text transform="matrix(1 0 0 1 51.3812 14.5)" class="st1 st2">.</text>
</g>
<g id="edge2-2">
	<text transform="matrix(1 0 0 1 128.7012 98.82)" class="st1 st2">c</text>
</g>
<polyline class="st4" points="0.3,56.7 15.1,64.9 0.3,72.7 "/>
</svg>
