<svg id="Layer_1" data-name="Layer 1" xmlns="http://www.w3.org/2000/svg" viewBox="0 0 151.97 121.89"><defs><style>.cls-1{fill:none;}.cls-1,.cls-3,.cls-4{stroke:#000;}.cls-2{isolation:isolate;font-size:14px;font-family:Times;}.cls-4{fill:#fff;}</style></defs><title>nfa_aorb</title><path class="cls-1" d="M33.39,47.29s-6-28.5,37-28.5h43"/><g id="node2"><text class="cls-2" transform="translate(128.39 22.6)">2</text></g><path class="cls-1" d="M33.39,83.29c0,21,14.56,19.28,14.56,19.28h65.94"/><polygon class="cls-3" points="102.39 15.29 112.39 18.79 102.39 22.29 102.39 15.29"/><polygon class="cls-3" points="103.89 99.1 113.89 102.6 103.89 106.1 103.89 99.1"/><g id="node5"><circle class="cls-1" cx="133.18" cy="103.1" r="14.96"/><circle class="cls-1" cx="133.18" cy="103.1" r="18.29"/></g><text class="cls-2" transform="translate(129.63 106.1)">3</text><text class="cls-2" transform="translate(30.34 68.79)">1</text><g id="edge2"><text class="cls-2" transform="translate(68.39 13.45)">a</text></g><g id="edge2-2" data-name="edge2"><text class="cls-2" transform="translate(68.39 97.1)">b</text></g><g id="node2-2" data-name="node2"><circle class="cls-1" cx="34.39" cy="65.29" r="18"/></g><g id="node5-2" data-name="node5"><circle class="cls-1" cx="132.18" cy="18.79" r="14.96"/><circle class="cls-1" cx="132.18" cy="18.79" r="18.29"/></g><polyline class="cls-4" points="0.23 57.45 15.39 65.22 0.23 72.45"/></svg>